<?xml version="1.0" standalone="no"?>
<!DOCTYPE svg PUBLIC "-//W3C//DTD SVG 20010904//EN"
 "http://www.w3.org/TR/2001/REC-SVG-20010904/DTD/svg10.dtd">
<svg version="1.0" xmlns="http://www.w3.org/2000/svg"
 width="660.000000pt" height="400.000000pt" viewBox="0 0 660.000000 400.000000"
 preserveAspectRatio="xMidYMid meet">

<g transform="translate(0.000000,400.000000) scale(0.100000,-0.100000)"
fill="#000000" stroke="none">
<path d="M3075 3938 c-280 -31 -603 -149 -845 -308 -496 -326 -801 -822 -871
-1414 -18 -155 -6 -452 25 -603 97 -477 358 -889 747 -1178 709 -528 1678
-512 2384 40 102 80 274 256 352 362 205 276 330 590 373 933 15 124 12 363
-6 491 -135 972 -974 1698 -1951 1688 -70 -1 -164 -6 -208 -11z m420 -148
c552 -64 1046 -373 1334 -837 282 -456 348 -1012 180 -1528 -42 -127 -157
-353 -236 -465 -81 -113 -238 -278 -348 -367 -221 -178 -499 -307 -787 -365
-99 -20 -141 -23 -338 -22 -204 0 -237 3 -351 27 -166 35 -290 76 -429 143
-648 311 -1042 965 -1017 1689 10 291 70 520 203 775 102 196 278 412 452 553
372 303 868 450 1337 397z"/>
<path d="M3160 3275 c-226 -51 -392 -179 -494 -383 -63 -126 -85 -335 -50
-482 59 -253 274 -460 534 -515 369 -78 738 149 830 511 24 94 26 251 5 341
-58 245 -259 453 -501 518 -84 23 -244 28 -324 10z"/>
<path d="M3000 1710 c-411 -40 -698 -237 -884 -607 -68 -137 -67 -147 45 -255
262 -253 554 -405 874 -453 118 -18 212 -19 361 -4 419 40 751 182 1010 432
130 125 135 136 100 227 -15 38 -49 106 -76 150 -179 298 -430 457 -797 505
-120 16 -491 19 -633 5z"/>
</g>
</svg>
